HIERARCHY
ROOT Hips
{
    OFFSET 0.000000 0.000000 0.000000
    CHANNELS 6 Xposition Yposition Zposition Zrotation Xrotation Yrotation
    JOINT Spine
    {
        OFFSET -0.000000 7.236184 0.000000
        CHANNELS 3 Zrotation Xrotation Yrotation
        JOINT Spine1
        {
            OFFSET -0.000000 20.420147 0.000000
            CHANNELS 3 Zrotation Xrotation Yrotation
            JOINT Neck
            {
                OFFSET -0.000000 20.336288 1.848754
                CHANNELS 3 Zrotation Xrotation Yrotation
                JOINT Head
                {
                    OFFSET -0.000000 12.354461 -1.764923
                    CHANNELS 3 Zrotation Xrotation Yrotation
                    End Site
                    {
                        OFFSET -0.000000 22.061537 0.000000
                    }
                }
            }
            JOINT LeftShoulder
            {
                OFFSET 3.573296 18.396038 -0.314103
                CHANNELS 3 Zrotation Xrotation Yrotation
                JOINT LeftArm
                {
                    OFFSET 10.880760 0.000000 0.000000
                    CHANNELS 3 Zrotation Xrotation Yrotation
                    JOINT LeftForeArm
                    {
                        OFFSET 27.185530 0.000000 0.000000
                        CHANNELS 3 Zrotation Xrotation Yrotation
                        JOINT LeftHand
                        {
                            OFFSET 27.825975 0.000000 0.000000
                            CHANNELS 3 Zrotation Xrotation Yrotation
                            End Site
                            {
                                OFFSET 13.236923 0.000000 0.000000
                            }
                        }
                    }
                }
            }
            JOINT RightShoulder
            {
                OFFSET -3.474926 18.396038 -0.314103
                CHANNELS 3 Zrotation Xrotation Yrotation
                JOINT RightArm
                {
                    OFFSET -10.880760 0.000000 0.000000
                    CHANNELS 3 Zrotation Xrotation Yrotation
                    JOINT RightForeArm
                    {
                        OFFSET -27.185530 0.000000 0.000000
                        CHANNELS 3 Zrotation Xrotation Yrotation
                        JOINT RightHand
                        {
                            OFFSET -27.825975 0.000000 0.000000
                            CHANNELS 3 Zrotation Xrotation Yrotation
                            End Site
                            {
                                OFFSET -13.236923 0.000000 0.000000
                            }
                        }
                    }
                }
            }
        }
    }
    JOINT LeftUpLeg
    {
        OFFSET 8.824615 0.000000 0.000000
        CHANNELS 3 Zrotation Xrotation Yrotation
        JOINT LeftLeg
        {
            OFFSET -0.000000 -35.111282 0.000000
            CHANNELS 3 Zrotation Xrotation Yrotation
            JOINT LeftFoot
            {
                OFFSET -0.000000 -42.324711 0.000000
                CHANNELS 3 Zrotation Xrotation Yrotation
                JOINT LeftToeBase
                {
                    OFFSET -0.000000 -5.735999 13.236923
                    CHANNELS 3 Zrotation Xrotation Yrotation
                    End Site
                    {
                        OFFSET -0.000000 0.000000 3.529846
                    }
                }
            }
        }
    }
    JOINT RightUpLeg
    {
        OFFSET -8.824615 0.000000 0.000000
        CHANNELS 3 Zrotation Xrotation Yrotation
        JOINT RightLeg
        {
            OFFSET -0.000000 -35.111282 0.000000
            CHANNELS 3 Zrotation Xrotation Yrotation
            JOINT RightFoot
            {
                OFFSET -0.000000 -42.324711 0.000000
                CHANNELS 3 Zrotation Xrotation Yrotation
                JOINT RightToeBase
                {
                    OFFSET -0.000000 -5.735999 13.236923
                    CHANNELS 3 Zrotation Xrotation Yrotation
                    End Site
                    {
                        OFFSET -0.000000 0.000000 3.529846
                    }
                }
            }
        }
    }
}
MOTION
Frames:    8
Frame Time:    0.008333
-0.972394    81.948601    94.806160    1.122701    -6.342980    -178.502060    0.736113    -16.642365    1.010411    -3.590497    7.305208    1.132029    4.416809    5.966014    -5.034533    4.854598    5.836586    -5.215535    1.224424    17.886007    -4.519803    -43.129818    47.243935    -38.757645    -2.886169    -3.970700    -17.079041    16.907642    -3.828724    3.872162    0.949670    9.486984    0.337157    47.888405    -12.787385    34.664654    -51.619835    -44.560947    77.010872    -39.620651    -0.126456    -9.055966    5.298332    -3.212515    -0.469557    -2.318366    6.106444    1.704191    -0.396681    -10.124794    -8.766494    -1.037249    1.730093    1.146227    -1.565607    -0.979864    0.253414    12.126209    8.944487    -11.759007    0.000000    0.000000    0.000000    0.000000    0.000000    0.000000    
-0.974468    81.948906    94.808411    1.120997    -6.349512    -178.509064    0.743635    -16.634344    1.004713    -3.596502    7.297249    1.125459    4.418755    5.968827    -5.042732    4.894731    5.840384    -5.220623    1.227856    17.880014    -4.529349    -43.094845    47.198471    -38.804863    -2.946564    -3.890670    -17.086021    16.897148    -3.764728    3.828786    0.925196    9.478647    0.358181    47.432663    -12.422471    34.501804    -52.441124    -44.288486    76.816933    -39.485195    0.614335    -7.955498    5.294858    -3.213894    -0.500810    -2.321427    6.094658    1.752862    -0.397641    -10.118886    -8.776865    -1.037150    1.730245    1.146117    -1.568636    -0.989617    0.255814    12.125599    8.946675    -11.756847    0.000000    0.000000    0.000000    0.000000    0.000000    0.000000    
-0.976136    81.949196    94.810570    1.119877    -6.355259    -178.511658    0.750272    -16.625465    1.001683    -3.606210    7.289381    1.121819    4.419267    5.972359    -5.057914    4.950383    5.844435    -5.231399    1.231621    17.872301    -4.537298    -43.056648    47.155247    -38.854935    -3.005452    -3.816797    -17.094336    16.886328    -3.706406    3.787317    0.902359    9.472279    0.378982    47.022831    -12.092856    34.350338    -53.352585    -44.005116    76.528870    -39.393494    1.387939    -6.837542    5.292381    -3.215842    -0.530301    -2.324555    6.084188    1.795017    -0.398103    -10.113122    -8.786516    -1.036907    1.730291    1.145848    -1.570863    -0.998005    0.256772    12.125427    8.948491    -11.755986    0.000000    0.000000    0.000000    0.000000    0.000000    0.000000    
-0.977355    81.949471    94.812622    1.119502    -6.360207    -178.509521    0.755984    -16.615589    1.001354    -3.619574    7.281529    1.121354    4.417601    5.976878    -5.080195    5.022524    5.847984    -5.247801    1.235069    17.862736    -4.543500    -43.014126    47.117798    -38.908428    -3.058784    -3.751232    -17.104012    16.875328    -3.655338    3.747761    0.882220    9.467212    0.399105    46.664089    -11.804721    34.210411    -54.340416    -43.708549    76.154541    -39.354332    2.187629    -5.709372    5.291104    -3.218491    -0.557420    -2.327727    6.075220    1.829449    -0.398008    -10.107529    -8.795139    -1.036550    1.730021    1.145454    -1.572000    -1.005012    0.255827    12.125489    8.950061    -11.756613    0.000000    0.000000    0.000000    0.000000    0.000000    0.000000    
-0.978095    81.949738    94.814529    1.119874    -6.364448    -178.502335    0.760411    -16.604870    1.003847    -3.636114    7.273637    1.124089    4.413896    5.982473    -5.109088    5.109106    5.850526    -5.269493    1.238399    17.851711    -4.547532    -42.967335    47.088120    -38.965630    -3.104034    -3.695745    -17.115385    16.865084    -3.612790    3.710694    0.864980    9.464111    0.417243    46.367126    -11.568719    34.085823    -55.370907    -43.400539    75.711349    -39.374886    2.992282    -4.597269    5.290970    -3.222070    -0.581805    -2.330768    6.067908    1.855489    -0.397458    -10.102124    -8.802711    -1.036053    1.729747    1.144905    -1.572141    -1.010540    0.252894    12.125981    8.951179    -11.758233    0.000000    0.000000    0.000000    0.000000    0.000000    0.000000    
-0.978338    81.949959    94.816330    1.121044    -6.368184    -178.489822    0.763339    -16.593521    1.009115    -3.655389    7.265888    1.130007    4.407728    5.988986    -5.144261    5.209540    5.851837    -5.296132    1.241443    17.839443    -4.549028    -42.916218    47.066265    -39.027012    -3.140762    -3.650477    -17.128735    16.856842    -3.578902    3.675343    0.851160    9.463243    0.432364    46.135826    -11.390719    33.978115    -56.415218    -43.081390    75.217857    -39.457973    3.786896    -3.517699    5.292142    -3.226773    -0.603948    -2.333998    6.062006    1.872889    -0.396072    -10.096737    -8.808647    -1.035398    1.729234    1.144183    -1.571134    -1.014854    0.247555    12.126692    8.951953    -11.760954    0.000000    0.000000    0.000000    0.000000    0.000000    0.000000    
-0.978050    81.950150    94.817970    1.123207    -6.371433    -178.471710    0.764750    -16.581352    1.017105    -3.677082    7.258042    1.139002    4.398380    5.996562    -5.185414    5.323934    5.851588    -5.327316    1.243822    17.826097    -4.547650    -42.861801    47.050907    -39.091873    -3.169363    -3.614724    -17.144325    16.851372    -3.553228    3.640557    0.841065    9.464576    0.443894    45.973042    -11.275439    33.887913    -57.442913    -42.752529    74.693848    -39.604301    4.555388    -2.488413    5.294749    -3.232635    -0.624103    -2.337150    6.057595    1.881812    -0.394256    -10.091470    -8.813193    -1.034493    1.728555    1.143184    -1.568828    -1.017795    0.239994    12.127796    8.952101    -11.764506    0.000000    0.000000    0.000000    0.000000    0.000000    0.000000    
-0.977255    81.950287    94.819443    1.126210    -6.374413    -178.448013    0.764210    -16.568949    1.027416    -3.700201    7.250539    1.150658    4.385838    6.004619    -5.231201    5.448656    5.849902    -5.361991    1.245211    17.812071    -4.542677    -42.805828    47.041229    -39.158855    -3.189709    -3.588497    -17.162445    16.849428    -3.535793    3.605874    0.834867    9.467928    0.451077    45.882629    -11.226881    33.817284    -58.404247    -42.424404    74.168076    -39.805916    5.264699    -1.550281    5.298665    -3.239776    -0.642287    -2.340292    6.054457    1.881752    -0.391874    -10.086239    -8.815768    -1.033460    1.728002    1.142044    -1.565296    -1.019660    0.229901    12.129077    8.951925    -11.768998    0.000000    0.000000    0.000000    0.000000    0.000000    0.000000    
